<svg width="8" height="12" viewBox="0 0 8 12" fill="none" xmlns="http://www.w3.org/2000/svg">
  <path d="M4.83143 8.60157L6.60039 10.3093C6.96278 10.6584 6.96278 11.2253 6.60039 11.5748C6.23838 11.9242 5.65163 11.9242 5.29 11.5748L3.55076 9.89663L1.81303 11.5748C1.63184 11.7493 1.39441 11.8367 1.15698 11.8367C0.919936 11.8367 0.682887 11.7493 0.501692 11.5748C0.139682 11.2253 0.139682 10.6588 0.501314 10.3093L2.27047 8.60157C1.62635 8.45992 1.00514 8.21356 0.432964 7.86704C-4.77413e-05 7.60349 -0.130122 7.05136 0.142712 6.63302C0.414787 6.21412 0.986961 6.08802 1.42073 6.35156C2.71617 7.13818 4.38497 7.13836 5.68117 6.35156C6.11493 6.08802 6.68692 6.21412 6.95956 6.63302C7.2324 7.051 7.10194 7.60349 6.66893 7.86704C6.09676 8.21392 5.47555 8.45992 4.83143 8.60157Z" fill="currentColor" fill-opacity="0.8"/>
  <path fill-rule="evenodd" clip-rule="evenodd" d="M0.378784 3.05471C0.378784 4.7387 1.79805 6.10851 3.54316 6.10851C5.28864 6.10851 6.70753 4.7387 6.70753 3.05471C6.70753 1.37018 5.28864 0 3.54316 0C1.79805 0 0.378784 1.37018 0.378784 3.05471ZM4.85331 3.05439C4.85331 2.35696 4.26561 1.78985 3.54311 1.78985C2.82117 1.78985 2.2329 2.35696 2.2329 3.05439C2.2329 3.75127 2.82117 4.31875 3.54311 4.31875C4.26561 4.31875 4.85331 3.75127 4.85331 3.05439Z" fill="currentColor" fill-opacity="0.8"/>
</svg>
