<svg xmlns="http://www.w3.org/2000/svg" style="display: none;">
  <symbol id="icon-envelope" viewBox="0 0 24 24">
    <path d="M20 4H4c-1.1 0-1.99.9-1.99 2L2 18c0 1.1.9 2 2 2h16c1.1 0 2-.9 2-2V6c0-1.1-.9-2-2-2zm0 4l-8 5-8-5V6l8 5 8-5v2z" fill="currentColor"/>
  </symbol>
  <symbol id="icon-key" viewBox="0 0 24 24">
    <path d="M17 8h-1V6c0-2.76-2.24-5-5-5S6 3.24 6 6v2H5c-1.1 0-2 .9-2 2v10c0 1.1.9 2 2 2h12c1.1 0 2-.9 2-2V10c0-1.1-.9-2-2-2zM9 6c0-1.66 1.34-3 3-3s3 1.34 3 3v2H9V6zm9 14H6V10h12v10z" fill="currentColor"/>
  </symbol>
  <symbol id="icon-close" viewBox="0 0 24 24">
    <path d="M10.5859 12L2.79297 4.20706L4.20718 2.79285L12.0001 10.5857L19.793 2.79285L21.2072 4.20706L13.4143 12L21.2072 19.7928L19.793 21.2071L12.0001 13.4142L4.20718 21.2071L2.79297 19.7928L10.5859 12Z" fill="currentColor"/>
  </symbol>
  <symbol id="icon-persona" viewBox="0 0 24 24">
    <path d="M12 12c2.21 0 4-1.79 4-4s-1.79-4-4-4-4 1.79-4 4 1.79 4 4 4zm0 2c-2.67 0-8 1.34-8 4v2h16v-2c0-2.66-5.33-4-8-4z" fill="currentColor"/>
  </symbol>
</svg>

